<!-- Generator: Adobe Illustrator 22.1.0, SVG Export Plug-In  -->
<svg version="1.1"
	 xmlns="http://www.w3.org/2000/svg" xmlns:xlink="http://www.w3.org/1999/xlink" xmlns:a="http://ns.adobe.com/AdobeSVGViewerExtensions/3.0/"
	 x="0px" y="0px" width="573.604px" height="245.806px" viewBox="0 0 573.604 245.806"
	 style="enable-background:new 0 0 573.604 245.806;" xml:space="preserve">
<style type="text/css">
	.st0{fill:none;}
	.st1{fill:none;stroke:#000000;stroke-miterlimit:10;}
</style>
<defs>
</defs>
<g>
	<path class="st0" d="M63.494,122.161c5.81,0,5.81-9.129,5.81-12.283V65.062H57.684v44.816
		C57.684,113.032,57.684,122.161,63.494,122.161z"/>
	<path class="st0" d="M268.285,175.734c2.112,0.309,3.829-0.176,5.149-1.275c1.276-1.057,2.024-2.377,2.156-3.873
		c0.176-1.496-0.176-2.816-1.1-3.961c-0.853-1.015-2.429-2.183-4.707-3.499l-8.22,8.22
		C263.645,174.1,265.402,175.255,268.285,175.734z"/>
	<path class="st0" d="M325.437,121.995c5.81,0,5.81-9.129,5.81-12.283v-8.05l-11.509,11.509
		C320.033,117.042,321.156,121.995,325.437,121.995z"/>
	<path class="st0" d="M7.469,65.726v56.269h5.395c6.805,0,6.805-9.627,6.805-13.362V79.088c0-3.735,0-13.362-6.805-13.362H7.469z"/>
	<path class="st0" d="M325.52,65.062c7.304,0,13.196,5.893,13.196,13.196v1.743l-7.47-0.083v-1.743c0-3.154,0-12.283-5.81-12.283
		c-5.809,0-5.809,9.129-5.809,12.283v31.537c0,0.83,0.003,2.077,0.109,3.459l11.509-11.509V94.94h-3.236v-0.83h10.706v0.083
		l23.242-23.242v-5.888H325.52z"/>
	<path class="st0" d="M203.563,174.679c1.76-0.748,3.256-2.2,4.401-4.4c1.188-2.201,1.804-5.018,1.804-8.405
		c0-2.685-0.352-5.017-1.056-7.129c-0.66-2.068-1.672-3.741-2.949-5.062c-1.276-1.32-2.684-2.2-4.225-2.684
		c-1.584-0.44-3.564-0.704-5.985-0.704c-1.188,0-2.508,0.044-3.564,0.132v29.396h4.841
		C199.559,175.823,201.803,175.427,203.563,174.679z"/>
	<polygon class="st0" points="378.154,150.739 378.154,145.194 360.156,145.194 378.154,169.266 	"/>
	<polygon class="st0" points="251.982,65.062 233.22,65.062 251.982,105.48 	"/>
	<path class="st0" d="M416.404,100.915c6.805,0,6.805-9.627,6.805-13.362v-8.465c0-3.735,0-13.362-6.805-13.362h-4.564v35.271h4.564
		V100.915z"/>
	<polygon class="st0" points="477.94,65.062 461.556,65.062 461.556,93.114 	"/>
	<polygon class="st0" points="572.774,65.062 554.012,65.062 572.774,105.48 	"/>
	<path d="M12.864,65.062h1.521c-0.5-0.053-1.007-0.083-1.521-0.083V65.062z"/>
	<path d="M0,65.062v57.929h12.864c7.884,0,14.275-6.391,14.275-14.275V79.254c0-7.37-5.585-13.432-12.754-14.191h-1.521H0z
		 M19.669,79.088v29.545c0,3.735,0,13.362-6.805,13.362H7.469V65.726h5.395C19.669,65.726,19.669,75.353,19.669,79.088z"/>
	<path d="M69.303,109.878c0,3.154,0,12.283-5.81,12.283s-5.81-9.129-5.81-12.283V65.062h-7.386v44.816
		c0,7.303,5.893,13.196,13.196,13.196s13.196-5.893,13.196-13.196V65.062h-7.386V109.878z"/>
	<path d="M126.323,110.044c0-7.801-8.797-16.765-10.54-18.507c-3.486-3.403-8.382-9.71-8.382-13.196c0-3.154,0-12.283,5.81-12.283
		s5.81,9.129,5.81,12.283v1.743h7.386v-1.743c0-7.303-5.893-13.196-13.196-13.196s-13.196,5.893-13.196,13.196
		c0,7.801,8.797,16.765,10.54,18.507c3.486,3.403,8.382,9.71,8.382,13.196c0,3.154,0,12.283-5.81,12.283
		c-5.81,0-5.81-9.129-5.81-12.283v-1.743h-7.386v1.743c0,7.303,5.893,13.196,13.196,13.196S126.323,117.348,126.323,110.044z"/>
	<polygon points="145.663,65.893 154.46,65.893 154.46,123.074 161.847,123.074 161.847,65.893 170.644,65.893 170.644,65.062 
		145.663,65.062 	"/>
	<rect x="193.968" y="65.062" width="7.386" height="58.012"/>
	<rect x="193.968" y="64.896" width="7.386" height="0.166"/>
	<polygon points="233.143,64.896 225.259,64.896 225.259,65.062 233.22,65.062 	"/>
	<polygon points="251.982,105.48 233.22,65.062 225.259,65.062 225.259,123.074 226.089,123.074 226.089,67.22 251.982,123.074 
		252.812,123.074 252.812,65.062 251.982,65.062 	"/>
	<rect x="251.982" y="64.896" width="0.83" height="0.166"/>
	<path d="M331.246,109.712c0,3.154,0,12.283-5.81,12.283c-4.28,0-5.403-4.953-5.7-8.823l-4.669,4.669
		c2.41,3.13,6.185,5.15,10.452,5.15c7.304,0,13.196-5.893,13.196-13.196V94.193l-7.47,7.47V109.712z"/>
	<path d="M319.628,109.712V78.175c0-3.154,0-12.283,5.809-12.283c5.81,0,5.81,9.129,5.81,12.283v1.743l7.47,0.083v-1.743
		c0-7.303-5.893-13.196-13.196-13.196c-7.303,0-13.195,5.893-13.195,13.196v31.537c0,3.036,1.029,5.819,2.743,8.046l4.669-4.669
		C319.631,111.789,319.628,110.542,319.628,109.712z"/>
	<polygon points="361.958,65.062 361.958,70.951 367.846,65.062 	"/>
	<path d="M361.958,70.951v52.041h19.088v-0.83c0,0-3.983,0-11.619,0V93.363c3.984,0,7.719,0,7.719,0v-0.83c0,0-3.9,0-7.719,0V65.893
		c6.752,0,11.013,0,11.619,0v-0.83h-13.2L361.958,70.951z"/>
	<path d="M404.453,64.979v0.083h13.472c-0.5-0.053-1.007-0.083-1.521-0.083H404.453z"/>
	<path d="M404.453,122.991h7.387v-21.08h2.074l10.291,21.08h8.217l-10.706-22.076c5.229-2.075,8.963-7.22,8.963-13.196v-8.465
		c0-7.37-5.585-13.432-12.754-14.191h-13.472V122.991z M411.84,65.726h4.564c6.805,0,6.805,9.627,6.805,13.362v8.465
		c0,3.735,0,13.362-6.805,13.362v0.083h-4.564V65.726z"/>
	<polygon points="477.988,64.979 477.94,65.062 478.936,65.062 478.984,64.979 	"/>
	<polygon points="461.556,93.114 461.556,65.062 454.17,65.062 454.17,123.157 461.556,123.157 461.556,99.753 473.175,123.157 
		481.558,123.157 464.959,88.881 478.936,65.062 477.94,65.062 	"/>
	<rect x="454.17" y="64.979" width="7.386" height="0.083"/>
	<path d="M503.721,122.991h19.088v-0.83c0,0-3.983,0-11.618,0V93.363c3.983,0,7.718,0,7.718,0v-0.83c0,0-3.9,0-7.718,0V65.893
		c6.751,0,11.012,0,11.618,0v-0.83h-19.088V122.991z"/>
	<polygon points="553.935,64.896 546.051,64.896 546.051,65.062 554.012,65.062 	"/>
	<rect x="572.774" y="64.896" width="0.83" height="0.166"/>
	<polygon points="546.881,123.074 546.881,67.22 572.774,123.074 573.604,123.074 573.604,65.062 572.774,65.062 572.774,105.48 
		554.012,65.062 546.051,65.062 546.051,123.074 	"/>
	<path d="M187.457,176.879h8.625c2.596,0,4.621-0.088,6.029-0.264c1.452-0.133,2.948-0.528,4.533-1.188
		c1.628-0.66,3.036-1.628,4.225-2.904c1.232-1.232,2.156-2.816,2.86-4.709s1.056-4.005,1.056-6.293c0-3.212-0.66-5.984-1.936-8.405
		c-1.276-2.464-3.213-4.356-5.809-5.765c-2.596-1.452-6.249-2.156-10.87-2.156c0,0-1.496,0-8.713,0V176.879z M191.989,146.427
		c1.056-0.088,2.376-0.132,3.564-0.132c2.42,0,4.401,0.264,5.985,0.704c1.541,0.483,2.949,1.363,4.225,2.684
		c1.276,1.32,2.289,2.993,2.949,5.062c0.704,2.112,1.056,4.444,1.056,7.129c0,3.388-0.616,6.204-1.804,8.405
		c-1.145,2.2-2.641,3.652-4.401,4.4s-4.004,1.145-6.733,1.145h-4.841V146.427z"/>
	<polygon points="229.433,153.027 229.433,164.645 229.433,166.537 229.433,168.737 229.433,176.879 247.827,176.879 
		247.827,175.778 238.102,175.778 233.965,175.778 233.965,168.737 233.965,166.537 233.965,165.35 233.965,164.645 
		233.965,160.772 237.31,160.772 243.119,160.772 243.119,159.673 237.178,159.673 233.965,159.673 233.965,153.995 
		233.965,153.071 233.965,146.251 238.19,146.251 247.916,146.251 247.916,145.194 229.433,145.194 	"/>
	<path d="M274.49,166.625c0.924,1.145,1.276,2.465,1.1,3.961c-0.132,1.496-0.88,2.816-2.156,3.873
		c-1.32,1.1-3.037,1.584-5.149,1.275c-2.883-0.48-4.64-1.635-6.723-4.388l-0.884,0.884c1.895,2.441,5.252,4.371,7.871,4.648
		c2.904,0.308,5.281-0.264,7.173-1.672c1.892-1.452,2.992-3.433,3.256-6.029c0.176-1.628,0-3.08-0.572-4.444
		c-0.572-1.32-1.408-2.377-2.552-3.213c-0.651-0.495-1.54-1.101-2.664-1.803l-3.408,3.408
		C272.061,164.442,273.637,165.61,274.49,166.625z"/>
	<path d="M265.249,154.216c-0.968-1.101-1.364-2.332-1.232-3.696c0.132-1.188,0.66-2.201,1.628-3.081
		c0.924-0.88,2.288-1.232,4.092-1.012c1.893,0.176,3.477,1.012,4.753,2.508c0.308,0.353,0.616,0.748,0.88,1.145l0.968-0.792
		c-1.056-1.408-2.112-2.421-3.212-2.948c-1.1-0.528-2.244-0.881-3.521-1.013c-2.288-0.22-4.269,0.265-5.897,1.54
		c-1.672,1.276-2.596,2.993-2.816,5.149c-0.176,1.408,0.044,2.772,0.572,4.093c0.572,1.319,1.408,2.42,2.552,3.344
		c1.188,0.925,2.904,2.024,5.193,3.345c0.199,0.111,0.384,0.22,0.573,0.329l3.408-3.408c-0.774-0.484-1.656-1.012-2.661-1.586
		C267.933,156.592,266.173,155.315,265.249,154.216z"/>
	<path d="M260.937,170.498l-0.836,0.924c0.168,0.276,0.372,0.543,0.578,0.809l0.884-0.884
		C261.356,171.073,261.151,170.803,260.937,170.498z"/>
	<polygon points="294.156,168.649 294.156,176.879 298.732,176.879 298.732,168.649 298.732,153.071 298.732,145.194 
		294.156,145.194 294.156,153.071 	"/>
	<path d="M317.389,150.123c-2.772,3.301-4.137,7.129-4.137,11.485c0,4.445,1.452,8.098,4.312,10.958
		c2.905,2.86,6.558,4.312,10.914,4.312c2.2,0,4.532-0.484,7.129-1.452c0.836-0.309,2.068-1.232,3.124-2.156
		c1.453-1.188,2.245-2.992,2.245-4.885v-5.017h-4.401v5.633c0,1.408-0.176,2.552-0.66,3.477c-0.439,0.924-1.275,1.716-2.552,2.332
		c-1.276,0.66-2.685,0.968-4.225,0.968c-3.081,0-5.633-1.144-7.657-3.388c-2.068-2.289-3.124-6.117-3.124-11.53
		c0-5.457,1.1-9.241,3.212-11.354c2.156-2.156,4.621-3.212,7.525-3.212c2.772,0,5.104,0.924,7.041,2.772
		c0.572,0.483,1.056,1.1,1.496,1.716l1.012-1.057v-0.132c-2.596-2.948-5.984-4.4-10.033-4.4
		C323.901,145.194,320.161,146.822,317.389,150.123z"/>
	<polygon points="355.403,169.178 355.403,176.087 356.416,176.087 356.416,169.178 356.416,147.703 378.639,176.879 
		379.475,176.879 379.475,151.091 379.475,145.194 378.154,145.194 378.154,150.739 378.154,169.266 360.156,145.194 
		355.403,145.194 355.403,152.764 	"/>
</g>
<line class="st1" x1="338.716" y1="94.11" x2="305.257" y2="127.586"/>
<line class="st1" x1="432.422" y1="0.354" x2="388.281" y2="44.495"/>
<line class="st1" x1="261.562" y1="171.346" x2="187.457" y2="245.452"/>
</svg>